Simulation
nRows=36
nColumns=15
endheader
time  TH_x TH_y TH_z SC_y  SC_z  SC_x  AC_y  AC_z  AC_x  GH_y  GH_z  GH_yy  EL_x  PS_y
0.0  0.000000  0.000000  0.000000  -33.881649332446955  1.4084669709503543  7.8767287771284  56.384176113424566  5.800499726265953  -10.322566182673581  47.232632320222386  -3.8211246755053616  -15.948660720264009  22.285728377121288  0.000000
0.031  0.000000  0.000000  0.000000  -33.56967337641545  0.945602034781649  7.172003238981867  56.15308663557543  5.173817612445893  -10.358587971213943  46.52426817414531  -3.8181410011338026  -15.770003103401656  22.321662289165918  0.000000
0.062  0.000000  0.000000  0.000000  -33.03891115618895  0.5454606422667659  6.421955448012092  55.82404651410793  4.3910847760489915  -10.383987577619624  45.576333088011985  -3.6741445406733573  -15.439126816550788  22.35192558140101  0.000000
0.093  0.000000  0.000000  0.000000  -32.60476354818864  0.11875412557638634  5.764206200434126  55.52165489875042  3.587261696939273  -10.414713911010486  44.555692620304626  -3.445237672828023  -15.131260498352189  22.348704975570396  0.000000
0.124  0.000000  0.000000  0.000000  -32.23283426127343  -0.260533962153442  5.192914700118295  55.287880955010564  2.828907566510709  -10.406734817684498  43.553556824603085  -3.1476308076956725  -14.840017103439555  22.33989449689118  0.000000
0.155  0.000000  0.000000  0.000000  -31.92720404297446  -0.5928582446453516  4.714730770353188  55.10111329843139  2.16098104691143  -10.373366401563912  42.58731731923359  -2.7550337219078593  -14.56964524848796  22.321493115682383  0.000000
0.186  0.000000  0.000000  0.000000  -31.676159584297206  -0.883218713433518  4.323000382038616  54.96984675591101  1.5998385194111435  -10.334471593920732  41.644583759206554  -2.239090038999595  -14.336241682409467  22.296172621657394  0.000000
0.217  0.000000  0.000000  0.000000  -31.474897141815845  -1.1328299872842404  4.018809121707742  54.88250408836162  1.1486477906426324  -10.297482329625295  40.73105166367403  -1.5918216491110493  -14.133502172091159  22.26421304659789  0.000000
0.248  0.000000  0.000000  0.000000  -31.30984864073013  -1.343869780514549  3.7948033183493193  54.835476631585834  0.7991904183149439  -10.271753340854454  39.83766036151256  -0.8123262913946621  -13.967736908637516  22.227877793378934  0.000000
0.279  0.000000  0.000000  0.000000  -31.17926682690125  -1.5148978153277353  3.6512444049220862  54.816885179342655  0.5383402090929071  -10.2649737200748  38.968986860275066  0.0887541640112036  -13.832077190832106  22.182875219903924  0.000000
0.31  0.000000  0.000000  0.000000  -31.07185065299436  -1.6426158475800665  3.583037804481648  54.810310600752416  0.3521759475363048  -10.284815895774228  38.120133472077896  1.0943500834521278  -13.729246036306932  22.128035634330985  0.000000
0.34099999999999997  0.000000  0.000000  0.000000  -30.983693892108494  -1.72918457094223  3.5768686610009595  54.81071147329582  0.23509928141485747  -10.33155074057147  37.29340455374203  2.193123238889347  -13.654722406374109  22.061649611841453  0.000000
0.372  0.000000  0.000000  0.000000  -30.915493838823853  -1.7802749293002138  3.6156215934698737  54.82165426234858  0.18061993892279996  -10.387872162777004  36.48024941452336  3.3779458717145654  -13.614081671701156  21.987933936214173  0.000000
0.403  0.000000  0.000000  0.000000  -30.876225733706004  -1.7995242381397965  3.6935213834156566  54.8630313429264  0.1794496434730053  -10.436529388079313  35.68693056690914  4.644285003801049  -13.60004928357645  21.912297029453832  0.000000
0.434  0.000000  0.000000  0.000000  -30.868912322705054  -1.7873125543698811  3.8083457831175904  54.94505418900022  0.23342173921536014  -10.462502494447563  34.91995095555508  5.9725593658310405  -13.606660729536067  21.838240596704697  0.000000
0.46499999999999997  0.000000  0.000000  0.000000  -30.901141601707764  -1.7443868383859598  3.9574862163395728  55.07249915847125  0.343158802937583  -10.462925864225554  34.17805921560518  7.348324707137834  -13.6341158649153  21.762802014542743  0.000000
0.496  0.000000  0.000000  0.000000  -30.974351440975763  -1.6766624175176659  4.135208965838681  55.236650736481536  0.5112270770789162  -10.44481154460782  33.45971431150661  8.76139076098879  -13.680733399824256  21.681892983709826  0.000000
0.527  0.000000  0.000000  0.000000  -31.084986384619093  -1.5897808337684984  4.336182695485553  55.4276962367343  0.7362127574876394  -10.416974512042854  32.76519522904827  10.208505338325034  -13.744678515105328  21.592371075358773  0.000000
0.558  0.000000  0.000000  0.000000  -31.229023392484038  -1.4855387107453861  4.558004620170687  55.639733738194785  1.0123406488318312  -10.384711669192233  32.09361729454191  11.692653967130976  -13.826502054601052  21.49612051013808  0.000000
0.589  0.000000  0.000000  0.000000  -31.40357016442115  -1.367133536569566  4.804143881348257  55.86711811928097  1.3341158350050024  -10.350742419551747  31.445046725390423  13.218000248541385  -13.92464989939724  21.394610472105903  0.000000
0.62  0.000000  0.000000  0.000000  -31.60420513033208  -1.2328314824381366  5.075288388639562  56.109782019886396  1.6947958244915016  -10.311686270087268  30.817235398692304  14.789465481291264  -14.039965281008966  21.28882566931661  0.000000
0.651  0.000000  0.000000  0.000000  -31.83089497062359  -1.0823652659884226  5.371992606701547  56.369909200512865  2.093736191196946  -10.264965628213538  30.20694682519799  16.40990536126218  -14.173676693609352  21.178810547097804  0.000000
0.6819999999999999  0.000000  0.000000  0.000000  -32.08290525308684  -0.9089148890169713  5.690976357464571  56.647296138254006  2.5413138600861025  -10.204683475853145  29.612840158565742  18.076345248317974  -14.324897059886014  21.067537906061283  0.000000
0.713  0.000000  0.000000  0.000000  -32.35274239649876  -0.7055165030056075  6.01242900177926  56.935887672228276  3.056093335597308  -10.121329382641234  29.03514713963139  19.777854328033456  -14.493628901344165  20.95547839823253  0.000000
0.744  0.000000  0.000000  0.000000  -32.635256084754815  -0.4898320980810203  6.323612799155088  57.22082675217763  3.646863085571227  -10.020748724691147  28.476303591461576  21.49328400296672  -14.67659255652227  20.841412298865446  0.000000
0.775  0.000000  0.000000  0.000000  -32.912240000176325  -0.27063668238409344  6.612648722701823  57.48969200881562  4.309670197367249  -9.909883037124331  27.94047682900552  23.196710356463253  -14.872691930250923  20.724131874124705  0.000000
0.806  0.000000  0.000000  0.000000  -33.17101617016853  -0.051276587127321104  6.872262353797151  57.729329445457296  5.035981742563066  -9.791589736338981  27.43211058034335  24.869241728412558  -15.079762898474408  20.60684454569281  0.000000
0.837  0.000000  0.000000  0.000000  -33.40952061890806  0.1668243697259162  7.128554925850828  57.93463584081062  5.794294102446856  -9.676410440424632  26.95279219358763  26.50289184436737  -15.294912362076364  20.491009754719947  0.000000
0.868  0.000000  0.000000  0.000000  -33.625100455040666  0.393698867946442  7.399010840847326  58.11970789339118  6.557743057938135  -9.565072386889033  26.501085886591632  28.104345047933723  -15.51729833934614  20.373994158255734  0.000000
0.899  0.000000  0.000000  0.000000  -33.82490560352918  0.6334685967823428  7.678342144358019  58.29197609178365  7.322946389696952  -9.44074899371939  26.07484253298422  29.681810899304253  -15.74454267003644  20.257417709301944  0.000000
0.9299999999999999  0.000000  0.000000  0.000000  -34.01515250916516  0.8880020630916489  7.963181356245761  58.46030846822491  8.084195095717172  -9.291695626600735  25.67107349431407  31.23910476690794  -15.978023179173785  20.141571881524566  0.000000
0.961  0.000000  0.000000  0.000000  -34.19983191008428  1.1589199671654136  8.251785166121218  58.628653406365196  8.835350484330027  -9.110363051422533  25.29004891442472  32.77625231976547  -16.215539722570284  20.02671084745525  0.000000
0.992  0.000000  0.000000  0.000000  -34.38144713537856  1.4453689536088847  8.543386681369212  58.799217936001405  9.569049323680906  -8.894099360378894  24.930761043110913  34.292604635546866  -16.458012866728524  19.913558228855337  0.000000
1.023  0.000000  0.000000  0.000000  -34.56168042685316  1.7451974464666635  8.839230887620596  58.972184183228315  10.278034691785153  -8.645076712154895  24.59361638292454  35.78625806520935  -16.704153784355988  19.801879770068037  0.000000
1.054  0.000000  0.000000  0.000000  -34.74121944175369  2.0552739302985703  9.140881067453478  59.146472441098524  10.955792307269771  -8.367975695343437  24.27744955208268  37.253826344247436  -16.954359156799732  19.69188632906877  0.000000
1.085  0.000000  0.000000  0.000000  -34.91996937303432  2.371086113224796  9.442634560853332  59.31960194258037  11.604208803245259  -8.065099359112072  23.98108384517919  38.68987676085695  -17.207968979249763  19.58295993112184  0.000000
